<?xml version="1.0" encoding="UTF-8"?>
<svg id="Layer_1" data-name="Layer 1" xmlns="http://www.w3.org/2000/svg" viewBox="0 0 4846.36 4846.36">
  <defs>
    <style>
      .cls-1 {
        fill: #254165;
      }

      .cls-2 {
        fill: #fff;
        opacity: 0;
      }
    </style>
  </defs>
  <rect class="cls-2" width="4846.36" height="4846.36"/>
  <g>
    <path class="cls-1" d="m3891.54,2321.97l-296.76-629.63c42.36-23.51,71.36-68.11,71.36-119.99,0-70.22-52.68-127.54-120.55-136.16v-42.93h.37c80.72-23.38,8.59-95.2-14.25-158.67h-2.2c-22.85,63.47-94.9,135.28-14.17,158.67v42.48c-70.03,6.59-125.03,64.86-125.03,136.62,0,27.28,8.17,52.54,21.84,73.95-339.25-3.3-629.53-247.69-890.35-180.48,0-135.01-50.04-195.94-77.14-219.1v-16.73h.52c113.34-32.83,12.08-133.67-19.99-222.79h-3.09c-32.08,89.12-133.25,189.95-19.9,222.79v17.15c-27.2,23.47-76.65,84.45-76.65,218.67-260.82-67.21-551.09,177.18-890.34,180.48,13.66-21.4,21.84-46.67,21.84-73.95,0-71.87-55.18-130.22-125.38-136.65v-42.45h.37c80.72-23.38,8.6-95.2-14.24-158.67h-2.2c-22.85,63.47-94.91,135.28-14.18,158.67v42.97c-67.7,8.78-120.2,66.02-120.2,136.13,0,51.89,29.01,96.48,71.36,119.99l-296.76,629.63h-9.33c0,86.27,165.75,204.89,370.23,204.89s370.23-118.63,370.23-204.89h-9.33l-285.61-605.97c266.93,9.83,558.78-102.2,773.33-91.63h516.69c214.54-10.57,506.4,101.46,773.33,91.63l-285.6,605.97h-9.34c0,86.27,165.76,204.89,370.23,204.89s370.23-118.63,370.23-204.89h-9.33Zm-2899.28,0l290.86-617.12c5.58,1.51,11.27,2.56,17.11,3.37v613.75h-307.97Zm648.92,0h-307.98v-610.26c7.08.79,14.18,1.44,21.3,2.04l286.67,608.22Zm1565.01,0l286.67-608.22c7.12-.59,14.23-1.25,21.3-2.04v610.26h-307.97Zm340.94,0v-613.75c5.84-.81,11.53-1.86,17.11-3.38l290.87,617.12h-307.98Z"/>
    <g>
      <path class="cls-1" d="m2626.31,3011.75h-6.85c-137.13-395.62-181.22-889.3-40.52-1314.96h2.56c8.97,0,16.24-7.27,16.24-16.24v-15.45c0-8.97-7.27-16.24-16.24-16.24h-315.64c-8.97,0-16.24,7.27-16.24,16.24v15.45c0,8.97,7.27,16.24,16.24,16.24h2.56c140.7,425.66,96.61,919.35-40.52,1314.96h-6.85c-12.76,0-23.11,10.35-23.11,23.11v5.91c0,12.76,10.35,23.11,23.11,23.11h405.25c12.76,0,23.11-10.35,23.11-23.11v-5.91c0-12.76-10.35-23.11-23.11-23.11Z"/>
      <path class="cls-1" d="m2552,3092.47c4.36,0,7.9-3.54,7.9-7.9v-4.39c0-4.36-3.54-7.9-7.9-7.9h-256.65c-4.36,0-7.9,3.54-7.9,7.9v4.39c0,4.36,3.54,7.9,7.9,7.9h12.08c-3.9,49.13-27.63,304.16-109.49,443.07,0,0,138.04,174.84,204.03,302.81,1.73,3.35,6.57,1.98,6.57-1.79v-313.71c-15.28-6.06-26.15-20.8-26.15-38.24,0-22.81,18.49-41.29,41.29-41.29s41.29,18.49,41.29,41.29c0,17.43-10.87,32.18-26.15,38.24v313.72c0,3.77,4.84,5.15,6.57,1.79,65.99-127.97,204.03-302.82,204.03-302.82-81.86-138.91-105.59-393.93-109.49-443.07h12.07Z"/>
    </g>
  </g>
</svg>